<?xml version="1.0" standalone="no"?>
<!DOCTYPE svg PUBLIC "-//W3C//DTD SVG 20010904//EN"
 "http://www.w3.org/TR/2001/REC-SVG-20010904/DTD/svg10.dtd">
<svg version="1.0" xmlns="http://www.w3.org/2000/svg"
 width="400.000000pt" height="72.000000pt" viewBox="0 0 2600.000000 2000.000000"
 preserveAspectRatio="xMidYMid meet">

<g transform="translate(0.000000,2000.000000) scale(0.100000,-0.100000)"
fill="#000000" stroke="none">
<path d="M10813 13403 c1335 -2 3519 -2 4855 0 1335 1 242 2 -2428 2 -2670 0
-3763 -1 -2427 -2z"/>
<path d="M8620 9935 l0 -3225 4663 2 4662 3 3 43 c2 25 -1 42 -7 42 -8 0 -11
951 -11 3180 l0 3180 -4655 0 -4655 0 0 -3225z m3542 2242 c191 -70 330 -219
373 -398 19 -83 19 -205 -1 -283 -48 -188 -204 -341 -409 -402 -74 -22 -255
-25 -335 -5 -265 64 -439 283 -440 550 0 273 177 495 445 557 96 22 283 13
367 -19z m3201 4 c88 -31 150 -68 200 -119 l45 -47 -79 -73 -79 -74 -42 35
c-93 75 -191 103 -300 86 -121 -19 -207 -82 -257 -188 -23 -49 -26 -68 -26
-161 0 -124 17 -171 90 -249 69 -73 127 -96 250 -96 116 0 165 17 237 83 l43
40 83 -76 84 -77 -39 -37 c-54 -52 -147 -105 -228 -131 -93 -29 -280 -31 -370
-3 -210 63 -357 218 -400 421 -47 225 38 461 212 582 79 55 113 71 196 94 97
26 294 21 380 -10z m1997 1 c51 -15 141 -53 157 -66 1 -1 -11 -36 -28 -77 -17
-40 -35 -84 -40 -96 l-8 -22 -64 30 c-166 77 -365 75 -429 -5 -10 -12 -18 -38
-18 -63 0 -33 5 -46 29 -65 38 -32 61 -41 231 -84 282 -71 373 -148 373 -318
1 -92 -28 -159 -93 -220 -98 -92 -192 -121 -385 -120 -121 1 -152 5 -230 28
-49 15 -115 41 -147 58 l-57 30 15 37 c9 20 28 63 42 96 l26 61 75 -38 c99
-50 177 -69 283 -70 139 -1 218 39 218 110 0 73 -36 96 -234 147 -163 42 -231
67 -286 104 -174 117 -147 394 50 508 35 20 111 47 160 57 62 12 296 -2 360
-22z m-7602 -7 c127 -30 227 -101 275 -197 76 -151 53 -334 -58 -444 -97 -98
-205 -134 -397 -134 -79 0 -128 4 -128 10 0 6 -9 10 -20 10 -11 0 -20 -4 -20
-10 0 -5 -8 -10 -17 -10 -17 0 -18 -12 -15 -146 3 -115 1 -148 -10 -155 -18
-12 -88 -11 -88 1 0 6 -28 10 -64 10 -36 0 -67 4 -71 9 -3 5 -8 236 -11 513
-2 277 -7 515 -9 531 l-4 27 287 0 c218 0 302 -4 350 -15z m1124 4 c133 -28
247 -111 296 -217 24 -51 27 -68 27 -172 0 -113 -1 -116 -36 -180 -25 -46 -52
-77 -96 -111 -34 -26 -67 -49 -74 -51 -8 -3 31 -67 108 -179 l121 -174 -126
-3 c-69 -1 -131 -1 -137 2 -7 2 -59 72 -116 155 l-104 151 -117 0 -118 0 0
-155 0 -155 -125 0 -125 0 0 550 0 550 285 0 c169 0 306 -4 337 -11z m2436
-411 c-3 -414 -4 -424 -26 -479 -12 -32 -41 -77 -63 -102 -102 -116 -311 -148
-503 -77 -53 20 -160 104 -154 121 2 5 32 45 67 89 l64 80 41 -41 c23 -23 59
-50 81 -60 83 -38 180 -15 220 52 19 32 20 55 23 337 l3 302 -195 0 -196 0 0
100 0 100 321 0 320 0 -3 -422z m1090 325 l-3 -98 -294 -3 -293 -2 6 -23 c3
-12 6 -66 6 -119 l0 -98 255 0 255 0 0 -100 0 -100 -257 0 -258 0 2 -127 3
-128 300 -3 301 -2 -3 -98 -3 -97 -427 -3 -428 -2 0 550 0 550 420 0 421 0 -3
-97z m2202 -3 l0 -100 -176 -2 -176 -3 -2 -445 -1 -445 -127 -3 -128 -3 0 451
0 450 -175 0 -175 0 0 100 0 100 480 0 480 0 0 -100z m-6838 -1550 c156 -23
261 -95 292 -201 20 -66 20 -92 0 -160 -12 -42 -28 -66 -70 -107 -30 -29 -54
-54 -54 -56 0 -2 10 -6 23 -10 36 -9 115 -83 139 -130 26 -50 35 -155 18 -214
-24 -91 -128 -170 -259 -198 -85 -18 -287 -19 -294 -1 -4 9 -8 8 -16 -3 -9
-12 -14 -13 -31 -2 -24 15 -50 16 -50 2 0 -5 -7 -10 -15 -10 -8 0 -15 5 -15
10 0 6 -13 10 -30 10 -16 0 -30 -4 -30 -10 0 -5 -25 -10 -55 -10 -30 0 -55 5
-55 10 0 6 -11 10 -25 10 -14 0 -25 -4 -25 -10 0 -5 -21 -10 -47 -10 l-48 0
-2 440 c-1 263 2 440 8 440 12 0 12 187 -1 195 -5 3 -10 10 -10 16 0 12 564
12 652 -1z m808 -540 l0 -550 -125 0 -125 0 0 550 0 550 125 0 125 0 0 -550z
m1100 445 l0 -105 -177 0 -178 0 0 -442 0 -443 -127 -3 -128 -3 0 446 0 445
-175 0 -175 0 0 105 0 105 480 0 480 0 0 -105z m390 -345 l0 -450 275 0 275 0
0 -100 0 -100 -400 0 -400 0 -2 546 c-2 300 -1 548 1 550 2 2 60 4 128 4 l123
0 0 -450z m1546 -103 c134 -302 244 -549 244 -550 0 -1 -60 -1 -133 1 l-133 3
-46 112 -46 112 -259 3 -258 2 -45 -111 c-24 -61 -48 -113 -53 -116 -10 -6
-239 -4 -245 2 -2 2 98 233 222 514 125 281 233 526 242 546 l15 36 125 -3
125 -3 245 -548z m1104 525 c140 -47 210 -135 210 -264 0 -86 -26 -144 -88
-198 -25 -22 -43 -42 -41 -44 2 -2 23 -13 45 -24 93 -47 152 -159 141 -272
-11 -120 -89 -204 -232 -251 -28 -9 -148 -14 -408 -18 l-367 -6 0 553 0 554
338 -4 c314 -4 341 -6 402 -26z m-5593 -174 c-3 -8 -6 -5 -6 6 -1 11 2 17 5
13 3 -3 4 -12 1 -19z m8443 -353 l0 -215 -1065 0 -1065 0 0 215 0 215 1065 0
1065 0 0 -215z m-8485 -2116 c37 -59 37 -60 58 -42 11 10 28 37 39 61 16 36
23 42 48 42 17 0 30 -2 30 -5 0 -4 -22 -43 -50 -89 -41 -68 -50 -91 -50 -130
0 -40 -3 -47 -17 -44 -13 2 -20 16 -23 48 -6 48 -80 184 -106 194 -23 9 -16
26 10 26 19 0 33 -13 61 -61z m395 45 c72 -29 108 -134 67 -197 -22 -34 -118
-60 -169 -47 -42 12 -87 60 -89 96 -1 13 -2 39 -4 57 -2 42 15 70 57 90 42 21
87 21 138 1z m650 -12 c33 -25 46 -73 30 -112 -7 -16 -18 -30 -25 -30 -25 0
-22 -25 7 -67 16 -24 27 -43 24 -43 -19 0 -55 26 -70 51 -21 36 -51 52 -82 45
-21 -6 -24 -12 -24 -53 0 -45 0 -46 -20 -28 -18 16 -20 31 -20 126 0 62 -4
110 -10 114 -6 4 -7 11 -4 17 11 18 164 2 194 -20z m392 18 c33 -14 63 -39 55
-47 -4 -3 -31 2 -59 11 -68 23 -101 12 -123 -40 -22 -53 -19 -91 10 -119 28
-29 95 -35 115 -10 10 13 15 12 36 -3 13 -9 24 -20 24 -23 0 -3 -27 -11 -61
-17 -116 -21 -179 27 -179 138 0 31 6 64 13 73 31 41 116 60 169 37z m291 -4
c53 -22 87 -70 87 -122 0 -69 -20 -99 -77 -113 -26 -7 -58 -17 -71 -22 -13 -5
-31 -9 -40 -8 -11 1 -8 4 8 9 22 7 23 8 4 9 -30 1 -74 39 -90 77 -19 45 -18
104 2 133 33 46 114 64 177 37z m347 -11 c41 -21 70 -71 70 -121 0 -81 -64
-118 -190 -112 l-65 3 0 107 c-1 67 -5 111 -13 120 -6 8 -8 18 -4 23 12 12
169 -3 202 -20z m180 13 c0 -5 0 -67 0 -140 0 -130 0 -131 -20 -113 -17 15
-20 31 -20 104 0 47 -4 100 -9 118 -5 17 -6 34 -3 38 8 8 53 2 52 -7z m187
-72 c40 -50 72 -82 80 -79 12 5 12 47 -1 148 0 6 13 10 29 10 l30 0 3 -123 c1
-67 -1 -129 -5 -136 -10 -18 -28 -4 -107 87 -32 37 -65 67 -72 67 -11 0 -14
-20 -14 -87 0 -85 0 -86 -20 -68 -17 15 -20 31 -20 94 -1 42 -5 95 -9 118 -5
23 -6 45 -3 48 18 18 48 -4 109 -79z m412 66 c42 -21 47 -33 21 -50 -17 -10
-25 -10 -43 3 -41 28 -106 12 -126 -32 -31 -68 6 -133 78 -133 22 0 46 3 55 6
18 7 22 49 6 59 -20 12 -9 25 20 25 l31 0 -3 -56 -3 -56 -40 -4 c-22 -3 -47
-5 -55 -6 -72 -6 -126 31 -136 93 -4 21 -10 39 -15 39 -14 0 -10 23 9 59 35
66 129 90 201 53z m271 -81 c0 -102 14 -131 62 -131 36 0 68 24 68 52 0 10 5
18 10 18 6 0 10 9 10 20 0 11 -4 20 -9 20 -6 0 -9 9 -8 20 1 11 5 20 9 20 12
0 10 38 -2 45 -20 12 -9 25 20 25 l30 0 0 -92 c0 -120 -10 -139 -78 -154 -64
-15 -86 -10 -134 30 -39 32 -52 79 -25 89 8 4 9 8 1 14 -13 9 -15 43 -2 43 12
0 10 48 -2 55 -18 11 -1 23 25 17 24 -4 25 -6 25 -91z m366 19 c37 -44 70 -80
73 -80 21 1 43 50 21 50 -5 0 -10 7 -10 15 0 8 5 15 10 15 6 0 10 9 10 19 0
11 -4 23 -10 26 -5 3 -10 13 -10 21 0 11 8 14 28 12 l27 -3 3 -137 3 -138 -28
0 c-22 0 -39 14 -81 65 -29 36 -48 65 -42 65 20 0 -7 36 -29 37 -18 2 -19 -3
-14 -67 3 -38 3 -76 -1 -85 -5 -15 -8 -15 -31 2 -21 15 -24 26 -25 76 0 32 4
57 10 57 6 0 5 9 -2 21 -10 17 -10 23 0 26 17 6 15 38 -3 53 -18 15 -11 30 15
30 12 0 46 -31 86 -80z m272 -62 l3 -138 -31 0 -30 0 0 65 c0 37 4 65 10 65 6
0 10 12 10 26 0 14 -4 23 -10 19 -5 -3 -10 -1 -10 4 0 6 5 11 10 11 16 0 12
46 -5 60 -21 17 -8 32 23 28 l27 -3 3 -137z m136 44 c22 -51 43 -91 48 -90 5
2 19 21 30 43 11 22 25 49 31 60 6 11 13 33 17 50 6 30 27 42 55 31 10 -3 -1
-37 -45 -138 -57 -131 -58 -133 -91 -136 -33 -2 -35 -1 -61 65 -16 38 -23 69
-18 71 6 2 6 10 -1 23 -5 11 -14 17 -20 14 -5 -4 -9 -1 -9 4 0 6 5 11 10 11
14 0 -18 60 -35 67 -23 8 -6 24 23 21 23 -3 32 -15 66 -96z m426 73 c0 -24 -2
-25 -76 -25 -74 0 -76 -1 -70 -22 3 -13 6 -29 6 -35 0 -9 20 -13 66 -13 56 0
65 -2 62 -17 -2 -14 -14 -16 -70 -14 -38 1 -68 -2 -68 -7 0 -5 3 -24 6 -41 l7
-31 73 0 c72 0 74 -1 74 -25 l0 -25 -106 0 -107 0 7 83 c9 102 8 145 -4 167
-5 10 -6 20 -3 24 3 3 51 6 105 6 98 0 98 0 98 -25z m215 15 c48 -11 85 -50
85 -91 0 -38 -16 -69 -35 -69 -23 0 -18 -31 10 -73 l26 -37 -33 0 c-26 0 -37
7 -55 34 -16 24 -19 36 -10 39 19 7 -44 28 -64 22 -15 -5 -19 -16 -19 -51 0
-42 -1 -44 -30 -44 -29 0 -30 2 -30 45 0 25 5 45 10 45 6 0 10 15 10 34 0 19
-4 38 -10 41 -11 7 -14 98 -3 108 9 10 101 8 148 -3z m304 -1 c35 -12 35 -12
19 -38 -9 -15 -16 -17 -39 -9 -15 5 -42 8 -61 6 -27 -2 -33 -7 -33 -27 0 -22
8 -27 60 -43 96 -28 123 -83 64 -132 -25 -21 -40 -26 -87 -26 -76 1 -113 18
-102 47 8 20 10 21 52 6 34 -12 51 -12 80 -4 73 22 62 45 -33 67 -35 8 -71 22
-81 31 -18 16 -22 53 -9 87 16 41 101 59 170 35z m291 -14 c0 -24 -2 -25 -70
-25 l-70 0 0 -35 0 -35 65 0 c58 0 65 -2 65 -20 0 -18 -7 -20 -63 -20 -35 0
-66 -2 -69 -5 -2 -3 -3 -18 0 -35 l4 -30 74 0 c72 0 74 -1 74 -25 l0 -25 -105
0 c-87 0 -105 3 -105 15 0 8 5 15 10 15 13 0 13 57 1 62 -8 2 -16 135 -12 181
1 4 46 7 101 7 l100 0 0 -25z m382 -110 c32 -71 58 -133 58 -137 0 -5 -13 -8
-29 -8 -30 0 -51 28 -31 40 7 4 3 13 -9 24 -14 13 -33 16 -82 14 -62 -3 -63
-4 -71 -36 -9 -35 -24 -45 -58 -40 l-22 3 21 27 c12 14 21 32 21 39 0 7 19 57
43 112 41 95 43 98 72 95 28 -3 33 -11 87 -133z m290 129 c3 -3 4 -14 1 -25
-4 -15 -14 -19 -47 -19 l-42 0 4 -90 c5 -107 -2 -147 -23 -130 -31 25 -44 70
-42 143 l2 72 -41 3 c-31 2 -43 8 -47 22 -3 10 -2 21 1 24 3 3 56 6 117 6 61
0 114 -3 117 -6z m360 -133 c32 -73 58 -135 56 -136 -2 -1 -17 0 -35 2 -23 4
-33 12 -37 29 -6 22 -11 24 -76 24 -62 0 -69 -2 -76 -22 -8 -28 -22 -38 -51
-38 -21 0 -22 1 -7 38 9 20 33 73 55 117 21 45 39 88 39 96 0 23 11 30 43 27
28 -3 34 -12 89 -137z m432 112 c37 -29 16 -38 -38 -18 -85 33 -136 -7 -136
-105 0 -53 34 -82 91 -78 44 3 44 3 47 46 3 37 6 42 28 42 23 0 24 -3 24 -59
0 -56 -1 -59 -22 -53 -13 3 -19 1 -15 -5 10 -16 -18 -23 -81 -22 -47 1 -52 3
-27 9 28 7 27 8 -12 9 -28 1 -50 8 -62 20 -22 22 -44 89 -34 105 4 5 7 20 8
31 1 33 33 75 68 91 45 20 127 13 161 -13z m144 -90 l3 -113 70 0 c67 0 70 -1
67 -22 -3 -22 -8 -23 -100 -26 -63 -2 -98 1 -98 8 0 5 6 10 13 11 10 0 10 2 0
6 -17 6 -17 105 -1 121 9 9 9 12 0 12 -7 0 -12 9 -12 20 0 11 5 20 10 20 15 0
12 36 -5 50 -21 17 -8 32 23 28 l27 -3 3 -112z m389 -25 l62 -138 -34 0 c-28
0 -35 5 -44 30 -10 30 -11 30 -80 30 -62 0 -71 -2 -71 -18 0 -10 -5 -23 -12
-30 -14 -14 -58 -16 -58 -3 0 5 20 52 44 105 24 52 47 105 51 118 12 37 26 49
54 46 22 -3 33 -20 88 -140z m209 58 c38 -47 70 -84 71 -83 1 2 3 38 5 82 3
80 3 80 31 80 15 0 27 -3 27 -7 0 -5 0 -67 0 -139 l0 -130 -27 3 c-19 2 -43
23 -87 80 -34 42 -64 77 -68 77 -5 1 -8 -35 -8 -79 l0 -80 -30 0 -30 0 0 140
0 140 24 0 c18 0 41 -21 92 -84z m412 64 c36 -22 40 -35 15 -48 -11 -7 -27 -5
-49 5 -61 29 -114 -1 -121 -69 -5 -40 -2 -50 20 -72 30 -30 81 -35 113 -12 17
13 21 12 37 -1 9 -9 17 -20 17 -24 0 -18 -62 -39 -116 -39 -52 0 -59 3 -95 39
-36 35 -39 43 -39 92 0 94 52 148 145 149 23 0 54 -9 73 -20z m292 -5 c0 -24
-2 -25 -75 -25 l-75 0 4 -32 c3 -33 3 -33 65 -36 53 -3 61 -6 61 -22 0 -18 -7
-20 -66 -20 -64 0 -66 -1 -60 -22 3 -13 6 -28 6 -35 0 -8 24 -13 73 -15 64 -3
72 -5 72 -23 0 -19 -8 -20 -107 -23 l-108 -3 0 134 c0 74 3 137 7 140 3 4 51
7 105 7 98 0 98 0 98 -25z m115 16 c3 -6 3 -46 -1 -90 -6 -75 -9 -81 -29 -81
-20 0 -23 7 -29 61 -11 112 -10 119 23 119 17 0 32 -4 36 -9z m-7565 -92 c0
-50 5 -99 10 -110 14 -26 69 -25 104 2 24 19 26 26 26 98 0 46 -5 82 -12 89
-9 9 -5 12 20 12 l32 0 0 -95 c0 -123 -8 -139 -73 -152 -61 -12 -110 -1 -132
30 -10 15 -15 46 -15 101 0 60 -4 84 -17 98 -15 17 -14 18 20 18 l37 0 0 -91z
m7551 -119 c27 -15 24 -48 -5 -56 -32 -8 -46 2 -46 31 0 19 8 29 28 34 2 1 12
-4 23 -9z"/>
<path d="M11870 11986 c-116 -26 -200 -98 -241 -205 -27 -73 -29 -205 -3 -271
42 -107 127 -186 227 -211 67 -16 181 -7 244 21 60 25 146 110 169 167 68 162
12 365 -124 451 -83 52 -180 69 -272 48z"/>
<path d="M9374 11975 c3 -9 6 -98 6 -197 l0 -180 148 4 c129 3 153 6 194 27
60 29 90 70 96 132 9 99 -21 159 -102 202 -36 18 -61 22 -195 25 -141 4 -153
3 -147 -13z"/>
<path d="M10510 11796 l0 -196 133 0 c88 0 150 5 183 15 113 33 165 151 115
260 -40 87 -90 107 -283 113 l-148 4 0 -196z"/>
<path d="M9378 10375 c-4 -4 -4 -68 -2 -143 l5 -137 147 0 c176 0 212 7 257
47 31 27 35 36 35 79 0 39 -5 55 -30 82 -16 19 -30 40 -30 46 0 6 -4 11 -10
11 -5 0 -10 -4 -10 -9 0 -5 -16 -5 -37 0 -21 5 -64 9 -95 9 -32 0 -58 5 -58
10 0 6 -7 10 -15 10 -8 0 -15 -4 -15 -10 0 -14 -127 -13 -132 1 -2 5 -6 7 -10
4z"/>
<path d="M9386 9918 c3 -4 0 -8 -6 -8 -8 0 -10 -40 -8 -136 l3 -136 185 1
c102 1 201 6 220 11 20 5 49 24 65 41 25 25 30 38 29 79 -1 84 -48 127 -150
137 -29 3 -51 10 -48 14 3 5 -6 9 -20 9 -14 0 -26 -4 -26 -10 0 -5 -28 -9 -65
-9 -36 1 -65 5 -65 10 0 14 -38 11 -43 -3 -4 -10 -7 -10 -14 0 -10 13 -65 13
-57 0z"/>
<path d="M13226 10266 c-3 -13 -40 -105 -81 -205 -41 -99 -75 -182 -75 -185 0
-8 335 -8 342 -1 7 7 -163 415 -172 415 -5 0 -11 -11 -14 -24z"/>
<path d="M14232 10229 l3 -134 155 0 c217 0 277 25 287 117 5 55 -20 97 -73
124 -32 15 -68 19 -207 22 l-168 4 3 -133z"/>
<path d="M14230 9775 l0 -135 193 0 c166 0 198 3 233 19 55 25 74 54 74 114 0
42 -5 54 -33 82 -47 47 -89 55 -289 55 l-178 0 0 -135z"/>
<path d="M9383 7900 c-50 -21 -69 -117 -32 -164 27 -34 84 -36 125 -4 39 30
44 38 44 75 0 63 -79 116 -137 93z"/>
<path d="M9990 7845 l0 -55 48 0 c35 0 54 6 70 20 27 26 27 31 1 64 -17 22
-28 26 -70 26 l-49 0 0 -55z"/>
<path d="M10714 7896 c-26 -12 -33 -22 -40 -58 -10 -57 -6 -78 19 -105 31 -35
87 -31 132 8 57 51 43 124 -31 155 -40 17 -41 17 -80 0z"/>
<path d="M11014 7869 c3 -17 6 -60 6 -95 l0 -64 44 0 c84 0 143 65 116 130
-17 40 -56 60 -121 60 l-51 0 6 -31z"/>
<path d="M13530 7841 l0 -52 51 3 c38 2 55 8 65 23 21 32 -11 66 -69 72 l-47
6 0 -52z"/>
<path d="M14493 7833 c-6 -21 -14 -45 -18 -53 -4 -12 3 -16 30 -18 20 -2 40 0
45 3 8 5 -29 104 -40 105 -3 0 -10 -17 -17 -37z"/>
<path d="M15140 7833 c-8 -27 -15 -52 -17 -58 -2 -5 15 -11 37 -13 44 -3 47 2
26 53 -10 23 -11 35 -3 38 6 2 7 9 3 15 -15 24 -32 11 -46 -35z"/>
<path d="M16099 7820 l-15 -50 32 -6 c50 -9 55 0 32 56 -11 28 -23 50 -27 50
-3 0 -13 -23 -22 -50z"/>
</g>
</svg>
